<svg height="512" viewBox="0 0 58 54" width="512" xmlns="http://www.w3.org/2000/svg"><g id="Page-1" fill="none" fill-rule="evenodd"><g id="142---Controller" fill-rule="nonzero" transform="translate(-1)"><path id="Shape" d="m46 28h-32c-5.73648749-.002922-10.79680118 3.7544953-12.45301529 9.2466945-1.65621411 5.4921992.48322129 11.4207551 5.26497433 14.5896879 4.78175306 3.1689328 11.07535696 2.8290667 15.48804096-.8363824h15.4c4.412684 3.6654491 10.7062879 4.0053152 15.488041.8363824 4.781753-3.1689328 6.9211884-9.0974887 5.2649743-14.5896879s-6.7165278-9.2496165-12.4530153-9.2466945z" fill="#ecf0f1"/><circle id="Oval" cx="14" cy="41" fill="#bdc3c7" r="9"/><path id="Shape" d="m18 39h-2v-2c0-.5522847-.4477153-1-1-1h-2c-.5522847 0-1 .4477153-1 1v2h-2c-.55228475 0-1 .4477153-1 1v2c0 .5522847.44771525 1 1 1h2v2c0 .5522847.4477153 1 1 1h2c.5522847 0 1-.4477153 1-1v-2h2c.5522847 0 1-.4477153 1-1v-2c0-.5522847-.4477153-1-1-1z" fill="#2c3e50"/><path id="Shape" d="m26 42c-.4043959-.0000863-.7689341-.2437275-.923678-.6173454-.1547439-.373618-.0692299-.8036603.216678-1.0896546l2-2c.3923789-.3789722 1.0160848-.3735524 1.4018186.0121814s.3911536 1.0094397.0121814 1.4018186l-2 2c-.1874927.1875494-.4418052.2929434-.707.293z" fill="#547580"/><path id="Shape" d="m32 42c-.4043959-.0000863-.7689341-.2437275-.923678-.6173454-.1547439-.373618-.0692299-.8036603.216678-1.0896546l2-2c.3923789-.3789722 1.0160848-.3735524 1.4018186.0121814s.3911536 1.0094397.0121814 1.4018186l-2 2c-.1874927.1875494-.4418052.2929434-.707.293z" fill="#547580"/><circle id="Oval" cx="46" cy="35" fill="#24ae5f" r="2"/><circle id="Oval" cx="46" cy="47" fill="#f0c419" r="2"/><circle id="Oval" cx="52" cy="41" fill="#4482c3" r="2"/><circle id="Oval" cx="40" cy="41" fill="#ff5364" r="2"/><g fill="#bdc3c7"><path id="Shape" d="m26 33h-2c-.5522847 0-1-.4477153-1-1s.4477153-1 1-1h2c.5522847 0 1 .4477153 1 1s-.4477153 1-1 1z"/><path id="Shape" d="m36 33h-6c-.5522847 0-1-.4477153-1-1s.4477153-1 1-1h6c.5522847 0 1 .4477153 1 1s-.4477153 1-1 1z"/><path id="Shape" d="m28 23h4c1.1045695 0 2 .8954305 2 2v3h-8v-3c0-1.1045695.8954305-2 2-2z"/></g><path id="Shape" d="m32 23h-4v-6c0-3.3137085 2.6862915-6 6-6h1c1.1045695 0 2-.8954305 2-2v-7c0-1.1045695.8954305-2 2-2s2 .8954305 2 2v7c0 3.3137085-2.6862915 6-6 6h-1c-1.1045695 0-2 .8954305-2 2z" fill="#2c3e50"/></g></g></svg>