<?xml version="1.0"?>
<svg xmlns="http://www.w3.org/2000/svg" viewBox="0 0 64 64" width="512" height="512"><g id="flat"><rect x="21" y="3" width="22" height="16" style="fill:#bfbfbf"/><rect x="11" y="3" width="6" height="16" style="fill:#bfbfbf"/><path d="M33,61H31a4,4,0,0,1-4-4l1-34h8l1,34A4,4,0,0,1,33,61Z" style="fill:#d3843d"/><rect x="17" y="5" width="4" height="12" style="fill:#6b809b"/><path d="M43,5v8h5c2.209,0,2,1.791,2,4v4l7,4V15A10,10,0,0,0,47,5Z" style="fill:#6b809b"/><rect x="25" y="19" width="14" height="4" style="fill:#6b809b"/><rect x="31" y="50" width="2" height="8" style="fill:#f1d77e"/><rect x="31" y="46" width="2" height="2" style="fill:#f1d77e"/><path d="M40,12H38V8H33V6h6a1,1,0,0,1,1,1Z" style="fill:#6b809b"/><rect x="38" y="14" width="2" height="2" style="fill:#6b809b"/></g></svg>
