<svg height="512" viewBox="0 0 58 58" width="512" xmlns="http://www.w3.org/2000/svg"><g id="Page-1" fill="none" fill-rule="evenodd"><g id="079---Disk" fill-rule="nonzero"><rect id="Rectangle-path" fill="#2980ba" height="58" rx="4" width="58"/><path id="Shape" d="m15 20h-1c-2.209139 0-4-1.790861-4-4v-16h38v16c0 2.209139-1.790861 4-4 4z" fill="#285680"/><circle id="Oval" cx="29" cy="34" fill="#a5a5a4" r="10"/><path id="Shape" d="m31.857 39.764c-.4494307.0003074-.8438561-.2992511-.9641796-.7322756-.1203235-.4330246.0630173-.8931255.4481796-1.1247244.7432604-.4464422 1.3442885-1.0949838 1.733-1.87.1607695-.3192168.4796268-.5284158.8364614-.5487937.3568347-.0203779.6974349.1511611.8935001.45.1960651.2988389.217808.6795769.0570385.9987937-.5579293 1.1134134-1.4212255 2.045038-2.489 2.686-.1554516.0934239-.3336392.1422092-.515.141z" fill="#2c3e50"/><circle id="Oval" cx="29" cy="34" fill="#2c3e50" r="2"/><circle id="Oval" cx="25" cy="30" fill="#2c3e50" r="1"/><path id="Shape" d="m49 58h-40v-5c0-1.6568542 1.3431458-3 3-3h34c1.6568542 0 3 1.3431458 3 3z" fill="#f9eab0"/><g fill="#2c3e50"><path id="Shape" d="m5 55c-.55228475 0-1-.4477153-1-1v-1c0-.5522847.44771525-1 1-1s1 .4477153 1 1v1c0 .5522847-.44771525 1-1 1z"/><path id="Shape" d="m5 51c-.55228475 0-1-.4477153-1-1v-2c0-.5522847.44771525-1 1-1s1 .4477153 1 1v2c0 .5522847-.44771525 1-1 1z"/><path id="Shape" d="m53 55c-.5522847 0-1-.4477153-1-1v-1c0-.5522847.4477153-1 1-1s1 .4477153 1 1v1c0 .5522847-.4477153 1-1 1z"/><path id="Shape" d="m53 51c-.5522847 0-1-.4477153-1-1v-2c0-.5522847.4477153-1 1-1s1 .4477153 1 1v2c0 .5522847-.4477153 1-1 1z"/><path id="Shape" d="m5 7c-.55228475 0-1-.44771525-1-1v-2c0-.55228475.44771525-1 1-1s1 .44771525 1 1v2c0 .55228475-.44771525 1-1 1z"/><path id="Shape" d="m53 7c-.5522847 0-1-.44771525-1-1v-2c0-.55228475.4477153-1 1-1s1 .44771525 1 1v2c0 .55228475-.4477153 1-1 1z"/></g><path id="Shape" d="m48 0v16c0 2.209139-1.790861 4-4 4h-21c-2.209139 0-4-1.790861-4-4v-16z" fill="#a5a5a4"/><path id="Shape" d="m37 10v-4c0-1.1045695.8954305-2 2-2h2c1.1045695 0 2 .8954305 2 2v8c0 1.1045695-.8954305 2-2 2h-2c-1.1045695 0-2-.8954305-2-2z" fill="#2c3e50"/></g></g></svg>