<?xml version="1.0" encoding="iso-8859-1"?>
<!-- Generator: Adobe Illustrator 19.0.0, SVG Export Plug-In . SVG Version: 6.00 Build 0)  -->
<svg version="1.1" id="Capa_1" xmlns="http://www.w3.org/2000/svg" xmlns:xlink="http://www.w3.org/1999/xlink" x="0px" y="0px"
	 viewBox="0 0 512 512" style="enable-background:new 0 0 512 512;" xml:space="preserve">
<rect x="74.183" y="74.183" style="fill:#EFEFEF;" width="363.641" height="363.641"/>
<path style="fill:#5A6B96;" d="M240.944,393.54H118.456v-74.792v-26.604C176.693,292.144,240.944,322.262,240.944,393.54z"/>
<path style="fill:#8CE0FF;" d="M393.54,256.003V393.54H240.944c0-71.278-64.251-101.396-122.488-101.396V180.92
	c0,0,56.571-5.682,127.839,75.083C319.25,338.656,393.54,256.003,393.54,256.003z"/>
<path style="fill:#FBC640;" d="M315.576,153.483c15.149,0,27.437,12.288,27.437,27.437c0,15.159-12.288,27.447-27.437,27.447
	c-15.159,0-27.447-12.288-27.447-27.447C288.129,165.771,300.417,153.483,315.576,153.483z"/>
<path d="M10.039,84.218h54.105v353.606c0,5.545,4.495,10.039,10.039,10.039h353.599v54.097c0,5.545,4.495,10.039,10.039,10.039
	s10.039-4.495,10.039-10.039v-54.1h54.099c5.545,0,10.039-4.495,10.039-10.039s-4.495-10.039-10.039-10.039h-54.098V74.184
	c0-5.545-4.495-10.039-10.039-10.039H84.218V10.039C84.218,4.495,79.723,0,74.179,0S64.14,4.495,64.14,10.039v54.1h-54.1
	C4.495,64.14,0,68.634,0,74.179S4.495,84.218,10.039,84.218z M84.223,84.223h343.562v343.562H84.223V84.223z"/>
<path d="M397.145,246.643c-3.873-1.493-8.272-0.442-11.059,2.635c-0.304,0.335-30.713,33.421-69.195,33.421
	c-0.142,0-0.287,0-0.429-0.001c-22.165-0.142-43.24-11.358-62.64-33.336c-73.826-83.664-133.852-78.683-136.37-78.43
	c-5.13,0.515-9.035,4.833-9.035,9.989v212.621c0,5.545,4.495,10.039,10.039,10.039h275.085c5.545,0,10.039-4.495,10.039-10.039
	V256.004C403.579,251.853,401.018,248.136,397.145,246.643z M128.496,302.492c49.434,3.014,96.581,28.489,101.902,81.009H128.496
	V302.492z M383.501,383.501H250.577c-2.578-31.396-17.4-57.386-43.257-75.596c-21.258-14.971-48.95-23.865-78.825-25.501v-91.05
	c17.684,2.23,59.59,13.855,110.274,71.292c23.391,26.501,49.544,40.002,77.731,40.13c0.135,0,0.264,0.001,0.398,0.001
	c27.931-0.001,51.562-13.258,66.604-24.53V383.501z"/>
<path d="M315.576,218.406c20.665,0,37.476-16.816,37.476-37.486c0-20.665-16.812-37.476-37.476-37.476
	c-20.67,0-37.486,16.812-37.486,37.476C278.089,201.59,294.906,218.406,315.576,218.406z M315.576,163.522
	c9.593,0,17.398,7.804,17.398,17.398c0,9.598-7.804,17.408-17.398,17.408c-9.598,0-17.408-7.81-17.408-17.408
	C298.168,171.327,305.977,163.522,315.576,163.522z"/>
<path d="M118.46,127.719h50.995c5.545,0,10.039-4.495,10.039-10.039S175,107.64,169.455,107.64H118.46
	c-5.545,0-10.039,4.495-10.039,10.039S112.915,127.719,118.46,127.719z"/>
<path d="M202.58,127.483c12.919,0,12.941-20.078,0-20.078C189.661,107.405,189.64,127.483,202.58,127.483z"/>
<g>
</g>
<g>
</g>
<g>
</g>
<g>
</g>
<g>
</g>
<g>
</g>
<g>
</g>
<g>
</g>
<g>
</g>
<g>
</g>
<g>
</g>
<g>
</g>
<g>
</g>
<g>
</g>
<g>
</g>
</svg>
