<?xml version="1.0" encoding="iso-8859-1"?>
<!-- Generator: Adobe Illustrator 19.0.0, SVG Export Plug-In . SVG Version: 6.00 Build 0)  -->
<svg version="1.1" id="Capa_1" xmlns="http://www.w3.org/2000/svg" xmlns:xlink="http://www.w3.org/1999/xlink" x="0px" y="0px"
	 viewBox="0 0 512 512" style="enable-background:new 0 0 512 512;" xml:space="preserve">
<g>
	<polygon style="fill:#5A6B96;" points="320.633,397.172 256,501.961 191.368,397.172 256,397.172 	"/>
	<polygon style="fill:#5A6B96;" points="114.829,256.001 114.829,320.633 10.039,256.001 114.829,191.368 	"/>
	<polygon style="fill:#5A6B96;" points="256,10.04 320.633,114.829 256,114.829 191.368,114.829 	"/>
	<polygon style="fill:#5A6B96;" points="501.961,256.001 397.171,320.633 397.171,256.001 397.171,191.368 	"/>
</g>
<path d="M507.231,247.456l-104.789-64.632c-3.095-1.91-6.985-1.995-10.163-0.222c-3.177,1.774-5.146,5.127-5.146,8.766v54.593
	h-22.377c-5.545,0-10.039,4.495-10.039,10.039c0,5.545,4.495,10.039,10.039,10.039h22.377v54.593c0,3.639,1.969,6.992,5.146,8.766
	c1.523,0.85,3.209,1.273,4.892,1.273c1.83,0,3.658-0.5,5.271-1.495l104.789-64.632c2.965-1.828,4.769-5.062,4.769-8.544
	C512,252.518,510.195,249.284,507.231,247.456z M407.211,302.646v-93.29l75.626,46.645L407.211,302.646z"/>
<path d="M191.368,387.133c-3.639,0-6.992,1.969-8.766,5.146s-1.689,7.066,0.222,10.163l64.632,104.789
	c1.828,2.965,5.062,4.769,8.544,4.769c3.483,0,6.716-1.805,8.544-4.769l64.632-104.789c1.91-3.097,1.995-6.985,0.222-10.163
	s-5.127-5.146-8.766-5.146h-54.593V266.04h32.457c5.545,0,10.039-4.495,10.039-10.039c0-5.545-4.495-10.039-10.039-10.039h-32.457
	V124.868h54.593c3.639,0,6.992-1.969,8.766-5.146s1.689-7.066-0.222-10.163L264.544,4.769c-1.828-2.964-5.062-4.769-8.544-4.769
	c-3.483,0-6.716,1.805-8.544,4.769l-64.632,104.789c-1.91,3.097-1.995,6.985-0.222,10.163s5.127,5.146,8.766,5.146h54.593v121.094
	H124.868v-54.593c0-3.639-1.969-6.992-5.146-8.766c-3.177-1.774-7.067-1.689-10.163,0.222L4.769,247.456
	C1.805,249.284,0,252.518,0,256.001c0,3.483,1.805,6.716,4.769,8.544l104.789,64.632c1.612,0.995,3.44,1.495,5.271,1.495
	c1.684,0,3.369-0.423,4.892-1.273c3.177-1.774,5.146-5.127,5.146-8.766V266.04h121.094v121.093H191.368z M256,29.163l46.645,75.626
	h-93.29L256,29.163z M104.789,302.646l-75.626-46.645l75.626-46.645C104.789,209.355,104.789,302.646,104.789,302.646z M256,482.838
	l-46.645-75.626h93.29L256,482.838z"/>
<path d="M332.632,245.961c-12.919,0-12.941,20.078,0,20.078C345.552,266.04,345.574,245.961,332.632,245.961z"/>
<g>
</g>
<g>
</g>
<g>
</g>
<g>
</g>
<g>
</g>
<g>
</g>
<g>
</g>
<g>
</g>
<g>
</g>
<g>
</g>
<g>
</g>
<g>
</g>
<g>
</g>
<g>
</g>
<g>
</g>
</svg>
