<?xml version="1.0" encoding="iso-8859-1"?>
<!-- Generator: Adobe Illustrator 19.0.0, SVG Export Plug-In . SVG Version: 6.00 Build 0)  -->
<svg version="1.1" id="Capa_1" xmlns="http://www.w3.org/2000/svg" xmlns:xlink="http://www.w3.org/1999/xlink" x="0px" y="0px"
	 viewBox="0 0 512 512" style="enable-background:new 0 0 512 512;" xml:space="preserve">
<rect x="175.224" y="198.314" style="fill:#5A6B96;" width="116.314" height="116.304"/>
<path style="fill:#FF4F4F;" d="M501.961,256.475l-64.944,64.944l-64.944-64.944H417.3c0-101.577-82.753-184.179-184.38-183.928
	C132.076,72.797,49.715,155.169,49.464,256.003c-0.241,95.633,72.895,174.562,166.159,183.537c5.04,0.492,9.477,2.861,12.659,6.375
	c3.182,3.514,5.1,8.172,5.1,13.242c0,11.655-10.059,20.741-21.665,19.627c-50.999-4.879-98.354-26.935-135.238-63.367
	C35.218,374.676,11.295,319.25,10.09,261.273C8.775,198.227,33.371,138.835,78.889,95.185
	c41.853-40.147,97.952-62.424,155.939-62.052c53.298,0.331,103.665,19.215,143.731,53.589c4.377,3.755,8.634,7.7,12.75,11.826
	c10.551,10.541,19.908,21.956,28.019,34.083c24.325,36.362,37.396,79.099,37.396,123.844L501.961,256.475L501.961,256.475z"/>
<path d="M301.578,314.622V198.317c0-5.545-4.495-10.039-10.039-10.039H175.225c-5.545,0-10.039,4.495-10.039,10.039v116.304
	c0,5.545,4.495,10.039,10.039,10.039h116.314C297.084,324.661,301.578,320.166,301.578,314.622z M281.5,304.582h-96.236v-96.226
	H281.5V304.582z"/>
<path d="M226.282,397.942c1.961,1.961,4.53,2.94,7.099,2.94c2.569,0,5.139-0.98,7.099-2.94l8.164-8.164
	c3.92-3.92,3.92-10.277,0-14.198c-3.92-3.92-10.277-3.92-14.198,0l-1.065,1.065l-1.065-1.065c-3.92-3.92-10.277-3.92-14.198,0
	c-3.92,3.92-3.92,10.277,0,14.198L226.282,397.942z"/>
<path d="M142.716,285.98c-3.92-3.92-10.277-3.92-14.198,0c-3.92,3.92-3.92,10.277,0,14.198l16.356,16.356
	c1.961,1.961,4.53,2.94,7.099,2.94s5.139-0.98,7.099-2.94c3.92-3.92,3.92-10.277,0-14.198L142.716,285.98z"/>
<path d="M173.319,330.781c-3.92,3.92-3.92,10.277,0,14.198l16.356,16.356c1.961,1.961,4.53,2.94,7.099,2.94
	c2.569,0,5.139-0.98,7.099-2.94c3.92-3.92,3.92-10.277,0-14.198l-16.356-16.356C183.597,326.859,177.24,326.859,173.319,330.781z"/>
<path d="M114.272,241.208c-3.92-3.92-10.277-3.92-14.198,0l-8.164,8.164c-1.882,1.882-2.94,4.436-2.94,7.099
	c0,2.662,1.058,5.216,2.94,7.099l8.164,8.163c1.961,1.961,4.53,2.94,7.099,2.94s5.139-0.981,7.099-2.94
	c3.92-3.92,3.92-10.277,0-14.197l-1.064-1.064l1.065-1.065C118.192,251.486,118.192,245.129,114.272,241.208z"/>
<path d="M187.517,182.161l16.356-16.356c3.92-3.92,3.92-10.277,0-14.198c-3.92-3.92-10.277-3.92-14.198,0l-16.356,16.356
	c-3.92,3.92-3.92,10.277,0,14.198c1.961,1.961,4.53,2.94,7.099,2.94C182.986,185.102,185.556,184.122,187.517,182.161z"/>
<path d="M159.072,196.408c-3.92-3.92-10.277-3.92-14.198,0l-16.356,16.356c-3.92,3.92-3.92,10.277,0,14.198
	c1.961,1.961,4.53,2.94,7.099,2.94s5.139-0.98,7.099-2.94l16.356-16.356C162.993,206.686,162.993,200.329,159.072,196.408z"/>
<path d="M232.317,137.361l1.065-1.065l1.065,1.065c1.961,1.961,4.53,2.94,7.099,2.94c2.569,0,5.139-0.98,7.099-2.94
	c3.92-3.92,3.92-10.277,0-14.198l-8.164-8.164c-3.92-3.92-10.277-3.92-14.198,0l-8.164,8.164c-3.92,3.92-3.92,10.277,0,14.198
	C222.04,141.283,228.397,141.283,232.317,137.361z"/>
<path d="M324.046,226.961c1.961,1.961,4.53,2.94,7.099,2.94c2.569,0,5.139-0.98,7.099-2.94c3.92-3.92,3.92-10.277,0-14.198
	l-16.356-16.356c-3.92-3.92-10.277-3.92-14.198,0c-3.921,3.92-3.92,10.277,0,14.198L324.046,226.961z"/>
<path d="M286.345,185.102c2.569,0,5.139-0.981,7.099-2.94c3.92-3.92,3.921-10.277,0-14.197l-16.356-16.356
	c-3.92-3.921-10.277-3.92-14.197,0c-3.92,3.92-3.921,10.277,0,14.197l16.356,16.356
	C281.207,184.122,283.776,185.102,286.345,185.102z"/>
<path d="M352.49,271.733c1.961,1.961,4.53,2.94,7.099,2.94c2.569,0,5.139-0.981,7.099-2.94l3.224-3.224l60.007,60.006
	c3.92,3.92,10.277,3.92,14.198,0l64.943-64.943c2.871-2.871,3.731-7.19,2.177-10.941c-1.554-3.752-5.214-6.197-9.275-6.197h-35.409
	c-1.805-42.836-15.154-83.921-38.88-119.386c-3.082-4.609-9.318-5.846-13.926-2.762c-4.609,3.083-5.845,9.317-2.762,13.926
	c23.356,34.913,35.701,75.807,35.701,118.262c0,5.545,4.495,10.039,10.039,10.039h21l-40.707,40.707l-40.707-40.707h20.99
	c5.545,0,10.039-4.495,10.039-10.039c0-51.826-20.258-100.577-57.043-137.271c-36.665-36.575-85.266-56.697-136.91-56.697
	c-0.162,0-0.33,0-0.491,0c-106.415,0.265-193.205,87.055-193.47,193.469c-0.122,48.564,17.861,95.105,50.635,131.055
	c32.552,35.704,76.803,57.901,124.587,62.499c2.381,0.232,4.581,1.341,6.193,3.122c1.612,1.781,2.502,4.091,2.502,6.502
	c0,2.755-1.123,5.292-3.163,7.146c-2.059,1.871-4.721,2.755-7.506,2.488c-49.164-4.703-93.82-25.629-129.14-60.518
	c-39.73-39.227-62.248-91.505-63.406-147.207c-1.261-60.451,22.075-116.789,65.712-158.634
	c39.877-38.25,92.214-59.263,147.529-59.263c0.463,0,0.935,0.001,1.398,0.005c50.415,0.313,99.16,18.486,137.257,51.17
	c4.207,3.611,10.545,3.126,14.156-1.082c3.61-4.207,3.125-10.546-1.083-14.156c-41.699-35.776-95.043-55.666-150.203-56.01
	c-30.189-0.175-59.708,5.373-87.794,16.543c-28.114,11.182-53.402,27.433-75.158,48.304C24.204,133.717-1.325,195.349,0.053,261.482
	c0.626,30.139,7.016,59.511,18.991,87.299c11.963,27.758,28.913,52.58,50.381,73.776c38.645,38.172,87.519,61.07,141.334,66.219
	c0.949,0.091,1.896,0.137,2.842,0.137c7.386,0,14.578-2.749,20.081-7.749c6.19-5.624,9.74-13.645,9.74-22.006
	c0-7.404-2.734-14.5-7.698-19.981c-4.972-5.49-11.765-8.91-19.139-9.629c-88.307-8.498-157.305-84.717-157.081-173.518
	c0.237-95.398,78.043-173.204,173.442-173.442c0.147,0,0.292,0,0.44,0c46.288,0,89.86,18.043,122.731,50.833
	c30.593,30.518,48.438,70.334,50.861,113.016h-34.903c-0.051,0-0.101,0.005-0.153,0.006l-5.232-5.232
	c-3.92-3.92-10.277-3.92-14.198,0c-3.92,3.92-3.92,10.277,0,14.198l1.065,1.065l-1.064,1.064
	C348.571,261.456,348.57,267.812,352.49,271.733z"/>
<path d="M307.69,316.533c1.961,1.961,4.53,2.94,7.099,2.94c2.569,0,5.139-0.98,7.099-2.94l16.356-16.356
	c3.92-3.92,3.92-10.277,0-14.198c-3.92-3.92-10.277-3.92-14.198,0l-16.356,16.356C303.77,306.256,303.77,312.613,307.69,316.533z"/>
<path d="M279.246,330.78l-16.356,16.356c-3.92,3.92-3.92,10.277,0,14.198c1.961,1.961,4.53,2.94,7.099,2.94
	c2.569,0,5.139-0.98,7.099-2.94l16.356-16.356c3.92-3.92,3.92-10.277,0-14.198C289.523,326.859,283.166,326.859,279.246,330.78z"/>
<path d="M398.557,95.847c-12.919,0-12.941,20.078,0,20.078C411.476,115.926,411.497,95.847,398.557,95.847z"/>
<g>
</g>
<g>
</g>
<g>
</g>
<g>
</g>
<g>
</g>
<g>
</g>
<g>
</g>
<g>
</g>
<g>
</g>
<g>
</g>
<g>
</g>
<g>
</g>
<g>
</g>
<g>
</g>
<g>
</g>
</svg>
