<?xml version="1.0" encoding="iso-8859-1"?>
<!-- Generator: Adobe Illustrator 19.0.0, SVG Export Plug-In . SVG Version: 6.00 Build 0)  -->
<svg version="1.1" id="Capa_1" xmlns="http://www.w3.org/2000/svg" xmlns:xlink="http://www.w3.org/1999/xlink" x="0px" y="0px"
	 viewBox="0 0 512 512" style="enable-background:new 0 0 512 512;" xml:space="preserve">
<path style="fill:#FF4F4F;" d="M443.553,321.827h-158.75V161.752l-0.01-0.01c29.154-11.485,49.784-39.896,49.784-73.136
	c0-43.389-35.177-78.567-78.577-78.567s-78.577,35.177-78.577,78.567c0,33.24,20.631,61.651,49.784,73.136v0.01v160.075H68.447
	c-19.587,0-35.479,15.882-35.479,35.479v78.286h23.221v66.369h399.621v-66.369h23.221v-78.286
	C479.031,337.709,463.139,321.827,443.553,321.827z"/>
<rect x="56.189" y="435.592" style="fill:#EFEFEF;" width="399.621" height="66.369"/>
<path style="fill:#CC3F3F;" d="M284.803,161.752v160.075h-57.595V161.752v-0.01c8.915,3.514,18.623,5.441,28.792,5.441
	c10.17,0,19.878-1.928,28.792-5.441L284.803,161.752z"/>
<path style="fill:#FF4F4F;" d="M256,10.039c43.4,0,78.577,35.177,78.577,78.567c0,33.24-20.631,61.651-49.784,73.136
	c-8.915,3.514-18.623,5.441-28.792,5.441c-10.17,0-19.878-1.928-28.792-5.441c-29.154-11.485-49.784-39.896-49.784-73.136
	C177.423,45.217,212.6,10.039,256,10.039z"/>
<path d="M68.447,311.788c-25.098,0-45.518,20.42-45.518,45.518v78.285c0,5.544,4.496,10.039,10.039,10.039H46.15v56.331
	c0,5.544,4.496,10.039,10.039,10.039h399.621c5.544,0,10.039-4.496,10.039-10.039v-56.33h13.181c5.544,0,10.039-4.496,10.039-10.039
	v-78.286c0-25.098-20.42-45.518-45.518-45.518H294.842V168.274c13.626-6.639,25.298-16.637,34.025-29.221
	c10.303-14.859,15.749-32.303,15.749-50.447C344.616,39.748,304.863,0,256,0s-88.616,39.748-88.616,88.606
	c0,18.144,5.446,35.588,15.75,50.447c8.729,12.588,20.405,22.587,34.035,29.227v143.508H68.447z M445.771,491.922H66.229v-46.291
	h379.543V491.922z M468.992,357.306v68.246h-13.181H56.189H43.008v-68.246c0-14.028,11.412-25.439,25.439-25.439h375.105
	C457.58,331.866,468.992,343.279,468.992,357.306z M187.462,88.606c0-37.787,30.746-68.528,68.538-68.528
	s68.538,30.741,68.538,68.528c0,28.362-17.046,53.403-43.427,63.796c-7.983,3.147-16.431,4.743-25.111,4.743
	c-8.68,0-17.128-1.595-25.111-4.743c-0.001,0-0.001,0-0.002,0C204.508,142.009,187.462,116.968,187.462,88.606z M237.247,175.212
	c6.124,1.321,12.39,2.01,18.753,2.01c6.367,0,12.636-0.69,18.763-2.012v136.577h-37.517V175.212z"/>
<path d="M315.202,412.277h88.507c5.544,0,10.039-4.496,10.039-10.039c0-5.544-4.496-10.039-10.039-10.039h-88.507
	c-5.544,0-10.039,4.496-10.039,10.039C305.163,407.782,309.658,412.277,315.202,412.277z"/>
<path d="M436.833,412.041c12.919,0,12.941-20.078,0-20.078C423.914,391.962,423.893,412.041,436.833,412.041z"/>
<g>
</g>
<g>
</g>
<g>
</g>
<g>
</g>
<g>
</g>
<g>
</g>
<g>
</g>
<g>
</g>
<g>
</g>
<g>
</g>
<g>
</g>
<g>
</g>
<g>
</g>
<g>
</g>
<g>
</g>
</svg>
